<svg xmlns="http://www.w3.org/2000/svg" xmlns:xlink="http://www.w3.org/1999/xlink" width="500" zoomAndPan="magnify" viewBox="0 0 375 374.999991" height="500" preserveAspectRatio="xMidYMid meet" version="1.0"><defs><clipPath id="7d04873704"><path d="M 153.210938 62.058594 L 201.855469 62.058594 L 201.855469 176 L 153.210938 176 Z M 153.210938 62.058594 " clip-rule="nonzero"/></clipPath><clipPath id="2fb3e2b256"><path d="M 169.402344 169.910156 C 170.433594 166.722656 171.46875 163.523438 172.503906 160.335938 C 175.003906 152.621094 177.492188 144.921875 179.996094 137.203125 L 189.023438 109.335938 C 191.636719 101.269531 194.25 93.207031 196.863281 85.140625 C 198.125 81.242188 199.480469 77.355469 200.652344 73.429688 C 200.667969 73.371094 200.695312 73.316406 200.707031 73.261719 C 202.035156 69.179688 199.703125 64.09375 195.425781 62.917969 C 191.132812 61.742188 186.507812 63.828125 185.082031 68.203125 C 184.046875 71.386719 183.015625 74.589844 181.980469 77.777344 C 179.476562 85.492188 176.988281 93.191406 174.488281 100.90625 C 171.484375 110.203125 168.476562 119.480469 165.460938 128.777344 C 162.84375 136.839844 160.230469 144.90625 157.617188 152.984375 C 156.359375 156.882812 155.003906 160.769531 153.832031 164.699219 C 153.816406 164.753906 153.789062 164.808594 153.773438 164.863281 C 152.445312 168.945312 154.78125 174.035156 159.058594 175.207031 C 163.347656 176.382812 167.976562 174.300781 169.402344 169.925781 " clip-rule="nonzero"/></clipPath><clipPath id="2aeea946e0"><path d="M 0.210938 0.0585938 L 48.855469 0.0585938 L 48.855469 114 L 0.210938 114 Z M 0.210938 0.0585938 " clip-rule="nonzero"/></clipPath><clipPath id="c2facabb6e"><path d="M 16.402344 107.910156 C 17.433594 104.722656 18.46875 101.523438 19.503906 98.335938 C 22.003906 90.621094 24.492188 82.921875 26.996094 75.203125 L 36.023438 47.335938 C 38.636719 39.269531 41.25 31.207031 43.863281 23.140625 C 45.125 19.242188 46.480469 15.355469 47.652344 11.429688 C 47.667969 11.371094 47.695312 11.316406 47.707031 11.261719 C 49.035156 7.179688 46.703125 2.09375 42.425781 0.917969 C 38.132812 -0.257812 33.507812 1.828125 32.082031 6.203125 C 31.046875 9.386719 30.015625 12.589844 28.980469 15.777344 C 26.476562 23.492188 23.988281 31.191406 21.488281 38.90625 C 18.484375 48.203125 15.476562 57.480469 12.460938 66.777344 C 9.84375 74.839844 7.230469 82.90625 4.617188 90.984375 C 3.359375 94.882812 2.003906 98.769531 0.832031 102.699219 C 0.816406 102.753906 0.789062 102.808594 0.773438 102.863281 C -0.554688 106.945312 1.78125 112.035156 6.058594 113.207031 C 10.347656 114.382812 14.976562 112.300781 16.402344 107.925781 " clip-rule="nonzero"/></clipPath><clipPath id="0e3dd16241"><rect x="0" width="49" y="0" height="114"/></clipPath><clipPath id="afda8eecc0"><path d="M 92 130.640625 L 283 130.640625 L 283 314.847656 L 92 314.847656 Z M 92 130.640625 " clip-rule="nonzero"/></clipPath><clipPath id="5d54078ee7"><path d="M 266.609375 151.546875 C 264.570312 158.210938 262.527344 164.878906 260.5 171.546875 C 257.734375 180.601562 254.96875 189.675781 252.199219 198.730469 C 250.941406 202.828125 249.613281 206.894531 248.300781 210.960938 L 238.53125 241.359375 C 236.476562 247.761719 234.628906 254.304688 232.269531 260.605469 C 231.582031 262.4375 230.816406 264.242188 229.976562 266 C 230.296875 265.34375 230.605469 264.671875 230.925781 264.015625 C 228.367188 269.34375 225.125 274.289062 221.28125 278.777344 C 221.742188 278.246094 222.207031 277.699219 222.667969 277.167969 C 220.5 279.671875 218.152344 282.019531 215.648438 284.183594 C 214.378906 285.277344 213.0625 286.324219 211.722656 287.316406 C 211.386719 287.566406 211.050781 287.804688 210.703125 288.058594 C 210.5625 288.15625 210.410156 288.265625 210.253906 288.363281 C 209.597656 288.855469 211.359375 287.539062 211.246094 287.695312 C 210.855469 288.253906 209.570312 288.796875 208.996094 289.148438 C 206.214844 290.878906 203.292969 292.402344 200.289062 293.71875 C 199.578125 294.023438 198.863281 294.320312 198.136719 294.613281 C 197.746094 294.765625 197.355469 294.90625 196.964844 295.058594 C 196.683594 295.171875 195.984375 295.410156 197.269531 294.949219 C 198.738281 294.417969 197.523438 294.863281 197.242188 294.949219 C 195.71875 295.464844 194.167969 295.941406 192.601562 296.34375 C 188.941406 297.308594 185.195312 297.953125 181.421875 298.300781 C 182.132812 298.246094 182.832031 298.175781 183.546875 298.121094 C 177.660156 298.625 171.75 298.359375 165.933594 297.324219 C 166.660156 297.449219 167.375 297.589844 168.101562 297.714844 C 162.105469 296.625 156.304688 294.738281 150.796875 292.109375 C 151.453125 292.433594 152.125 292.738281 152.78125 293.0625 C 147.527344 290.503906 142.636719 287.300781 138.191406 283.515625 C 138.722656 283.976562 139.265625 284.4375 139.796875 284.914062 C 135.996094 281.628906 132.570312 277.953125 129.582031 273.914062 C 129.203125 273.410156 128.785156 272.90625 128.460938 272.359375 C 128.492188 272.417969 129.636719 274.121094 128.921875 273.046875 C 128.769531 272.808594 128.617188 272.570312 128.460938 272.332031 C 127.761719 271.257812 127.105469 270.167969 126.464844 269.0625 C 125.191406 266.839844 124.046875 264.535156 123.039062 262.171875 C 122.789062 261.585938 122.535156 260.984375 122.3125 260.382812 C 122.199219 260.101562 122.117188 259.738281 121.976562 259.472656 C 122.828125 261.066406 122.398438 260.675781 122.199219 260.089844 C 121.726562 258.636719 121.265625 257.167969 120.875 255.6875 C 120.300781 253.519531 119.851562 251.3125 119.449219 249.105469 C 119.097656 247.117188 118.75 245.148438 118.398438 243.164062 C 116.175781 230.332031 114.148438 217.445312 112.445312 204.53125 C 111.328125 196.160156 110.347656 187.757812 109.621094 179.34375 C 109.675781 180.058594 109.746094 180.757812 109.804688 181.46875 C 109.285156 175.433594 108.882812 169.378906 108.8125 163.328125 C 108.753906 158.769531 108.824219 154.144531 109.621094 149.644531 L 109.230469 151.8125 C 109.511719 150.257812 109.875 148.707031 110.542969 147.28125 L 109.59375 149.265625 C 109.859375 148.722656 110.152344 148.203125 110.542969 147.742188 L 109.148438 149.351562 C 109.664062 148.765625 110.25 148.234375 110.878906 147.757812 C 111.019531 147.644531 111.171875 147.546875 111.300781 147.449219 C 111.425781 147.351562 109.019531 148.917969 110.152344 148.246094 C 110.488281 148.050781 110.824219 147.855469 111.160156 147.6875 C 111.480469 147.519531 111.828125 147.394531 112.152344 147.242188 C 113.1875 146.777344 109.734375 148.023438 110.824219 147.714844 C 111.003906 147.660156 111.1875 147.605469 111.367188 147.546875 C 112.109375 147.339844 112.863281 147.210938 113.632812 147.140625 C 112.921875 147.199219 112.222656 147.269531 111.507812 147.324219 C 112.65625 147.242188 113.800781 147.296875 114.945312 147.492188 C 114.21875 147.367188 113.507812 147.226562 112.78125 147.101562 C 114.164062 147.351562 115.492188 147.8125 116.765625 148.414062 C 116.105469 148.09375 115.4375 147.785156 114.777344 147.464844 C 116.316406 148.21875 117.726562 149.183594 119.027344 150.300781 C 118.496094 149.839844 117.953125 149.378906 117.421875 148.902344 C 118.59375 149.925781 119.65625 151.070312 120.621094 152.285156 C 120.875 152.609375 121.109375 152.929688 121.347656 153.25 C 122.355469 154.605469 120.046875 151.265625 120.972656 152.691406 C 121.460938 153.460938 121.921875 154.230469 122.355469 155.027344 C 122.816406 155.878906 123.234375 156.746094 123.640625 157.625 C 123.835938 158.074219 124.03125 158.519531 124.214844 158.96875 C 124.394531 159.414062 125.109375 161.34375 124.480469 159.597656 C 123.851562 157.847656 124.519531 159.75 124.660156 160.195312 C 124.84375 160.742188 125.011719 161.300781 125.164062 161.859375 C 125.472656 162.949219 125.75 164.054688 125.988281 165.160156 C 126.617188 168.050781 127.035156 171 127.289062 173.949219 C 127.234375 173.238281 127.164062 172.539062 127.105469 171.824219 C 127.929688 181.691406 126.996094 191.628906 125.246094 201.34375 L 125.640625 199.179688 C 124.507812 205.382812 123.011719 211.519531 121.277344 217.585938 C 120.089844 221.710938 122.1875 226.726562 126.5625 227.929688 C 130.742188 229.074219 135.632812 227.0625 136.90625 222.644531 C 140.664062 209.519531 143.472656 195.851562 143.78125 182.15625 C 144.003906 172.105469 142.816406 162.140625 139.292969 152.707031 C 134.667969 140.363281 123.722656 129.320312 109.636719 131.125 C 104.324219 131.808594 98.3125 135.332031 95.828125 140.195312 C 92.445312 146.835938 92.289062 154.746094 92.359375 162.054688 C 92.445312 172.121094 93.378906 182.195312 94.457031 192.203125 C 95.546875 202.308594 96.902344 212.386719 98.414062 222.421875 C 99.640625 230.640625 100.96875 238.84375 102.394531 247.035156 C 103.023438 250.695312 103.613281 254.386719 104.507812 257.992188 C 106.394531 265.679688 109.496094 273.117188 113.816406 279.753906 C 122.339844 292.878906 134.234375 302.914062 148.660156 309.023438 C 160.957031 314.234375 174.601562 315.71875 187.792969 313.96875 C 200.5 312.292969 212.492188 307.007812 222.734375 299.40625 C 233.261719 291.605469 241.242188 280.902344 246.46875 268.949219 C 248.523438 264.242188 249.949219 259.25 251.527344 254.359375 C 254.015625 246.601562 256.503906 238.859375 258.992188 231.117188 C 262.011719 221.710938 265.128906 212.316406 268.019531 202.867188 C 272.367188 188.640625 276.714844 174.425781 281.0625 160.195312 C 281.425781 158.980469 281.800781 157.777344 282.164062 156.5625 C 283.421875 152.453125 281.214844 147.40625 276.882812 146.21875 C 272.648438 145.058594 267.882812 147.101562 266.539062 151.503906 " clip-rule="nonzero"/></clipPath><clipPath id="487c80ac31"><path d="M 0.160156 0.640625 L 191 0.640625 L 191 184.847656 L 0.160156 184.847656 Z M 0.160156 0.640625 " clip-rule="nonzero"/></clipPath><clipPath id="bd1dcd3085"><path d="M 174.609375 21.546875 C 172.570312 28.210938 170.527344 34.878906 168.5 41.546875 C 165.734375 50.601562 162.96875 59.675781 160.199219 68.730469 C 158.941406 72.828125 157.613281 76.894531 156.300781 80.960938 L 146.53125 111.359375 C 144.476562 117.761719 142.628906 124.304688 140.269531 130.605469 C 139.582031 132.4375 138.816406 134.242188 137.976562 136 C 138.296875 135.34375 138.605469 134.671875 138.925781 134.015625 C 136.367188 139.34375 133.125 144.289062 129.28125 148.777344 C 129.742188 148.246094 130.207031 147.699219 130.667969 147.167969 C 128.5 149.671875 126.152344 152.019531 123.648438 154.183594 C 122.378906 155.277344 121.0625 156.324219 119.722656 157.316406 C 119.386719 157.566406 119.050781 157.804688 118.703125 158.058594 C 118.5625 158.15625 118.410156 158.265625 118.253906 158.363281 C 117.597656 158.855469 119.359375 157.539062 119.246094 157.695312 C 118.855469 158.253906 117.570312 158.796875 116.996094 159.148438 C 114.214844 160.878906 111.292969 162.402344 108.289062 163.71875 C 107.578125 164.023438 106.863281 164.320312 106.136719 164.613281 C 105.746094 164.765625 105.355469 164.90625 104.964844 165.058594 C 104.683594 165.171875 103.984375 165.410156 105.269531 164.949219 C 106.738281 164.417969 105.523438 164.863281 105.242188 164.949219 C 103.71875 165.464844 102.167969 165.941406 100.601562 166.34375 C 96.941406 167.308594 93.195312 167.953125 89.421875 168.300781 C 90.132812 168.246094 90.832031 168.175781 91.546875 168.121094 C 85.660156 168.625 79.75 168.359375 73.933594 167.324219 C 74.660156 167.449219 75.375 167.589844 76.101562 167.714844 C 70.105469 166.625 64.304688 164.738281 58.796875 162.109375 C 59.453125 162.433594 60.125 162.738281 60.78125 163.0625 C 55.527344 160.503906 50.636719 157.300781 46.191406 153.515625 C 46.722656 153.976562 47.265625 154.4375 47.796875 154.914062 C 43.996094 151.628906 40.570312 147.953125 37.582031 143.914062 C 37.203125 143.410156 36.785156 142.90625 36.460938 142.359375 C 36.492188 142.417969 37.636719 144.121094 36.921875 143.046875 C 36.769531 142.808594 36.617188 142.570312 36.460938 142.332031 C 35.761719 141.257812 35.105469 140.167969 34.464844 139.0625 C 33.191406 136.839844 32.046875 134.535156 31.039062 132.171875 C 30.789062 131.585938 30.535156 130.984375 30.3125 130.382812 C 30.199219 130.101562 30.117188 129.738281 29.976562 129.472656 C 30.828125 131.066406 30.398438 130.675781 30.199219 130.089844 C 29.726562 128.636719 29.265625 127.167969 28.875 125.6875 C 28.300781 123.519531 27.851562 121.3125 27.449219 119.105469 C 27.097656 117.117188 26.75 115.148438 26.398438 113.164062 C 24.175781 100.332031 22.148438 87.445312 20.445312 74.53125 C 19.328125 66.160156 18.347656 57.757812 17.621094 49.34375 C 17.675781 50.058594 17.746094 50.757812 17.804688 51.46875 C 17.285156 45.433594 16.882812 39.378906 16.8125 33.328125 C 16.753906 28.769531 16.824219 24.144531 17.621094 19.644531 L 17.230469 21.8125 C 17.511719 20.257812 17.875 18.707031 18.542969 17.28125 L 17.59375 19.265625 C 17.859375 18.722656 18.152344 18.203125 18.542969 17.742188 L 17.148438 19.351562 C 17.664062 18.765625 18.25 18.234375 18.878906 17.757812 C 19.019531 17.644531 19.171875 17.546875 19.300781 17.449219 C 19.425781 17.351562 17.019531 18.917969 18.152344 18.246094 C 18.488281 18.050781 18.824219 17.855469 19.160156 17.6875 C 19.480469 17.519531 19.828125 17.394531 20.152344 17.242188 C 21.1875 16.777344 17.734375 18.023438 18.824219 17.714844 C 19.003906 17.660156 19.1875 17.605469 19.367188 17.546875 C 20.109375 17.339844 20.863281 17.210938 21.632812 17.140625 C 20.921875 17.199219 20.222656 17.269531 19.507812 17.324219 C 20.65625 17.242188 21.800781 17.296875 22.945312 17.492188 C 22.21875 17.367188 21.507812 17.226562 20.78125 17.101562 C 22.164062 17.351562 23.492188 17.8125 24.765625 18.414062 C 24.105469 18.09375 23.4375 17.785156 22.777344 17.464844 C 24.316406 18.21875 25.726562 19.183594 27.027344 20.300781 C 26.496094 19.839844 25.953125 19.378906 25.421875 18.902344 C 26.59375 19.925781 27.65625 21.070312 28.621094 22.285156 C 28.875 22.609375 29.109375 22.929688 29.347656 23.25 C 30.355469 24.605469 28.046875 21.265625 28.972656 22.691406 C 29.460938 23.460938 29.921875 24.230469 30.355469 25.027344 C 30.816406 25.878906 31.234375 26.746094 31.640625 27.625 C 31.835938 28.074219 32.03125 28.519531 32.214844 28.96875 C 32.394531 29.414062 33.109375 31.34375 32.480469 29.597656 C 31.851562 27.847656 32.519531 29.75 32.660156 30.195312 C 32.84375 30.742188 33.011719 31.300781 33.164062 31.859375 C 33.472656 32.949219 33.75 34.054688 33.988281 35.160156 C 34.617188 38.050781 35.035156 41 35.289062 43.949219 C 35.234375 43.238281 35.164062 42.539062 35.105469 41.824219 C 35.929688 51.691406 34.996094 61.628906 33.246094 71.34375 L 33.640625 69.179688 C 32.507812 75.382812 31.011719 81.519531 29.277344 87.585938 C 28.089844 91.710938 30.1875 96.726562 34.5625 97.929688 C 38.742188 99.074219 43.632812 97.0625 44.90625 92.644531 C 48.664062 79.519531 51.472656 65.851562 51.78125 52.15625 C 52.003906 42.105469 50.816406 32.140625 47.292969 22.707031 C 42.667969 10.363281 31.722656 -0.679688 17.636719 1.125 C 12.324219 1.808594 6.3125 5.332031 3.828125 10.195312 C 0.445312 16.835938 0.289062 24.746094 0.359375 32.054688 C 0.445312 42.121094 1.378906 52.195312 2.457031 62.203125 C 3.546875 72.308594 4.902344 82.386719 6.414062 92.421875 C 7.640625 100.640625 8.96875 108.84375 10.394531 117.035156 C 11.023438 120.695312 11.613281 124.386719 12.507812 127.992188 C 14.394531 135.679688 17.496094 143.117188 21.816406 149.753906 C 30.339844 162.878906 42.234375 172.914062 56.660156 179.023438 C 68.957031 184.234375 82.601562 185.71875 95.792969 183.96875 C 108.5 182.292969 120.492188 177.007812 130.734375 169.40625 C 141.261719 161.605469 149.242188 150.902344 154.46875 138.949219 C 156.523438 134.242188 157.949219 129.25 159.527344 124.359375 C 162.015625 116.601562 164.503906 108.859375 166.992188 101.117188 C 170.011719 91.710938 173.128906 82.316406 176.019531 72.867188 C 180.367188 58.640625 184.714844 44.425781 189.0625 30.195312 C 189.425781 28.980469 189.800781 27.777344 190.164062 26.5625 C 191.421875 22.453125 189.214844 17.40625 184.882812 16.21875 C 180.648438 15.058594 175.882812 17.101562 174.539062 21.503906 " clip-rule="nonzero"/></clipPath><clipPath id="f162b90d64"><rect x="0" width="191" y="0" height="185"/></clipPath><clipPath id="39453608f0"><path d="M 219.398438 90.769531 L 265 90.769531 L 265 196.828125 L 219.398438 196.828125 Z M 219.398438 90.769531 " clip-rule="nonzero"/></clipPath><clipPath id="4c29cb341d"><path d="M 249 96.558594 C 248.035156 99.523438 247.082031 102.5 246.121094 105.464844 C 243.828125 112.550781 241.535156 119.621094 239.242188 126.707031 C 236.460938 135.316406 233.679688 143.929688 230.886719 152.539062 C 228.480469 159.945312 226.089844 167.351562 223.6875 174.773438 C 222.511719 178.410156 221.253906 182.015625 220.164062 185.664062 C 220.152344 185.71875 220.136719 185.761719 220.109375 185.816406 C 218.78125 189.898438 221.113281 194.984375 225.390625 196.160156 C 229.667969 197.332031 234.324219 195.25 235.734375 190.875 C 236.699219 187.914062 237.648438 184.9375 238.613281 181.972656 C 240.90625 174.886719 243.199219 167.8125 245.492188 160.726562 C 248.273438 152.117188 251.066406 143.507812 253.847656 134.898438 C 256.253906 127.492188 258.644531 120.082031 261.046875 112.660156 C 262.222656 109.042969 263.480469 105.421875 264.570312 101.773438 C 264.582031 101.71875 264.597656 101.675781 264.625 101.621094 C 265.953125 97.539062 263.617188 92.449219 259.339844 91.277344 C 255.050781 90.101562 250.410156 92.1875 249 96.558594 " clip-rule="nonzero"/></clipPath><clipPath id="68fb1d9dc7"><path d="M 0.398438 0.769531 L 46 0.769531 L 46 106.828125 L 0.398438 106.828125 Z M 0.398438 0.769531 " clip-rule="nonzero"/></clipPath><clipPath id="9cc3fc46b7"><path d="M 30 6.558594 C 29.035156 9.523438 28.082031 12.5 27.121094 15.464844 C 24.828125 22.550781 22.535156 29.621094 20.242188 36.707031 C 17.460938 45.316406 14.679688 53.929688 11.886719 62.539062 C 9.480469 69.945312 7.089844 77.351562 4.6875 84.773438 C 3.511719 88.410156 2.253906 92.015625 1.164062 95.664062 C 1.152344 95.71875 1.136719 95.761719 1.109375 95.816406 C -0.21875 99.898438 2.113281 104.984375 6.390625 106.160156 C 10.667969 107.332031 15.324219 105.25 16.734375 100.875 C 17.699219 97.914062 18.648438 94.9375 19.613281 91.972656 C 21.90625 84.886719 24.199219 77.8125 26.492188 70.726562 C 29.273438 62.117188 32.066406 53.507812 34.847656 44.898438 C 37.253906 37.492188 39.644531 30.082031 42.046875 22.660156 C 43.222656 19.042969 44.480469 15.421875 45.570312 11.773438 C 45.582031 11.71875 45.597656 11.675781 45.625 11.621094 C 46.953125 7.539062 44.617188 2.449219 40.339844 1.277344 C 36.050781 0.101562 31.410156 2.1875 30 6.558594 " clip-rule="nonzero"/></clipPath><clipPath id="a4ce8159e9"><rect x="0" width="46" y="0" height="107"/></clipPath><clipPath id="7e46e90856"><path d="M 186 60 L 238.535156 60 L 238.535156 186.460938 L 186 186.460938 Z M 186 60 " clip-rule="nonzero"/></clipPath><clipPath id="8df219f940"><path d="M 222.359375 65.882812 L 218.824219 76.8125 C 216 85.5625 213.164062 94.296875 210.339844 103.046875 L 200.121094 134.632812 C 197.160156 143.773438 194.210938 152.914062 191.246094 162.054688 C 189.808594 166.488281 188.285156 170.902344 186.941406 175.363281 C 186.925781 175.417969 186.898438 175.488281 186.886719 175.542969 C 185.558594 179.625 187.890625 184.710938 192.167969 185.886719 C 196.460938 187.058594 201.101562 184.976562 202.511719 180.601562 C 203.6875 176.957031 204.875 173.320312 206.046875 169.671875 C 208.871094 160.921875 211.707031 152.1875 214.53125 143.4375 C 217.941406 132.898438 221.351562 122.375 224.75 111.851562 C 227.710938 102.710938 230.660156 93.570312 233.625 84.429688 C 235.0625 79.996094 236.585938 75.582031 237.929688 71.121094 C 237.941406 71.066406 237.972656 70.996094 237.984375 70.941406 C 239.3125 66.859375 236.980469 61.773438 232.703125 60.597656 C 228.410156 59.425781 223.769531 61.507812 222.359375 65.882812 " clip-rule="nonzero"/></clipPath><clipPath id="2b226c7643"><path d="M 0 0 L 52.535156 0 L 52.535156 126.460938 L 0 126.460938 Z M 0 0 " clip-rule="nonzero"/></clipPath><clipPath id="702bb32d80"><path d="M 36.359375 5.882812 L 32.824219 16.8125 C 30 25.5625 27.164062 34.296875 24.339844 43.046875 L 14.121094 74.632812 C 11.160156 83.773438 8.210938 92.914062 5.246094 102.054688 C 3.808594 106.488281 2.285156 110.902344 0.941406 115.363281 C 0.925781 115.417969 0.898438 115.488281 0.886719 115.542969 C -0.441406 119.625 1.890625 124.710938 6.167969 125.886719 C 10.460938 127.058594 15.101562 124.976562 16.511719 120.601562 C 17.6875 116.957031 18.875 113.320312 20.046875 109.671875 C 22.871094 100.921875 25.707031 92.1875 28.53125 83.4375 C 31.941406 72.898438 35.351562 62.375 38.75 51.851562 C 41.710938 42.710938 44.660156 33.570312 47.625 24.429688 C 49.0625 19.996094 50.585938 15.582031 51.929688 11.121094 C 51.941406 11.066406 51.972656 10.996094 51.984375 10.941406 C 53.3125 6.859375 50.980469 1.773438 46.703125 0.597656 C 42.410156 -0.574219 37.769531 1.507812 36.359375 5.882812 " clip-rule="nonzero"/></clipPath><clipPath id="81e2b22c23"><rect x="0" width="53" y="0" height="127"/></clipPath></defs><g clip-path="url(#7d04873704)"><g clip-path="url(#2fb3e2b256)"><g transform="matrix(1, 0, 0, 1, 153, 62)"><g clip-path="url(#0e3dd16241)"><g clip-path="url(#2aeea946e0)"><g clip-path="url(#c2facabb6e)"><rect x="-235.5" width="540" fill="#00bfbb" height="539.999987" y="-144.499998" fill-opacity="1"/></g></g></g></g></g></g><g clip-path="url(#afda8eecc0)"><g clip-path="url(#5d54078ee7)"><g transform="matrix(1, 0, 0, 1, 92, 130)"><g clip-path="url(#f162b90d64)"><g clip-path="url(#487c80ac31)"><g clip-path="url(#bd1dcd3085)"><rect x="-174.5" width="540" fill="#00bfbb" height="539.999987" y="-212.499998" fill-opacity="1"/></g></g></g></g></g></g><g clip-path="url(#39453608f0)"><g clip-path="url(#4c29cb341d)"><g transform="matrix(1, 0, 0, 1, 219, 90)"><g clip-path="url(#a4ce8159e9)"><g clip-path="url(#68fb1d9dc7)"><g clip-path="url(#9cc3fc46b7)"><rect x="-301.5" width="540" fill="#00bfbb" height="539.999987" y="-172.499998" fill-opacity="1"/></g></g></g></g></g></g><g clip-path="url(#7e46e90856)"><g clip-path="url(#8df219f940)"><g transform="matrix(1, 0, 0, 1, 186, 60)"><g clip-path="url(#81e2b22c23)"><g clip-path="url(#2b226c7643)"><g clip-path="url(#702bb32d80)"><rect x="-268.5" width="540" fill="#00bfbb" height="539.999987" y="-142.499998" fill-opacity="1"/></g></g></g></g></g></g></svg>