<svg xmlns="http://www.w3.org/2000/svg" xmlns:xlink="http://www.w3.org/1999/xlink" width="500" zoomAndPan="magnify" viewBox="0 0 375 374.999991" height="500" preserveAspectRatio="xMidYMid meet" version="1.0"><defs><g/><clipPath id="8012825b27"><path d="M 62.703125 130.117188 L 83.550781 130.117188 L 83.550781 178.992188 L 62.703125 178.992188 Z M 62.703125 130.117188 " clip-rule="nonzero"/></clipPath><clipPath id="7590f6916f"><path d="M 69.640625 176.34375 C 70.085938 174.976562 70.527344 173.605469 70.972656 172.238281 C 72.042969 168.933594 73.109375 165.632812 74.183594 162.324219 L 78.050781 150.378906 C 79.171875 146.925781 80.292969 143.46875 81.414062 140.011719 C 81.953125 138.339844 82.53125 136.675781 83.035156 134.992188 C 83.042969 134.96875 83.054688 134.945312 83.058594 134.917969 C 83.628906 133.171875 82.628906 130.988281 80.796875 130.488281 C 78.957031 129.984375 76.972656 130.875 76.363281 132.75 C 75.917969 134.117188 75.476562 135.488281 75.03125 136.855469 C 73.960938 140.160156 72.894531 143.460938 71.820312 146.769531 C 70.535156 150.753906 69.246094 154.730469 67.953125 158.714844 C 66.832031 162.167969 65.710938 165.625 64.589844 169.089844 C 64.050781 170.761719 63.472656 172.425781 62.96875 174.109375 C 62.960938 174.132812 62.949219 174.15625 62.945312 174.179688 C 62.375 175.929688 63.375 178.109375 65.207031 178.613281 C 67.046875 179.117188 69.03125 178.222656 69.640625 176.347656 " clip-rule="nonzero"/></clipPath><clipPath id="417381d55a"><path d="M 0.703125 0.117188 L 21.550781 0.117188 L 21.550781 48.992188 L 0.703125 48.992188 Z M 0.703125 0.117188 " clip-rule="nonzero"/></clipPath><clipPath id="610e06ac05"><path d="M 7.640625 46.34375 C 8.085938 44.976562 8.527344 43.605469 8.972656 42.238281 C 10.042969 38.933594 11.109375 35.632812 12.183594 32.324219 L 16.050781 20.378906 C 17.171875 16.925781 18.292969 13.46875 19.414062 10.011719 C 19.953125 8.339844 20.53125 6.675781 21.035156 4.992188 C 21.042969 4.96875 21.054688 4.945312 21.058594 4.917969 C 21.628906 3.171875 20.628906 0.988281 18.796875 0.488281 C 16.957031 -0.015625 14.972656 0.875 14.363281 2.75 C 13.917969 4.117188 13.476562 5.488281 13.03125 6.855469 C 11.960938 10.160156 10.894531 13.460938 9.820312 16.769531 C 8.535156 20.753906 7.246094 24.730469 5.953125 28.714844 C 4.832031 32.167969 3.710938 35.625 2.589844 39.089844 C 2.050781 40.761719 1.472656 42.425781 0.96875 44.109375 C 0.960938 44.132812 0.949219 44.15625 0.945312 44.179688 C 0.375 45.929688 1.375 48.109375 3.207031 48.613281 C 5.046875 49.117188 7.03125 48.222656 7.640625 46.347656 " clip-rule="nonzero"/></clipPath><clipPath id="503e8bc537"><rect x="0" width="22" y="0" height="49"/></clipPath><clipPath id="344d29e2ca"><path d="M 36.386719 159.511719 L 118.410156 159.511719 L 118.410156 238.460938 L 36.386719 238.460938 Z M 36.386719 159.511719 " clip-rule="nonzero"/></clipPath><clipPath id="67ddea5aad"><path d="M 111.304688 168.472656 C 110.429688 171.328125 109.554688 174.1875 108.6875 177.042969 C 107.5 180.925781 106.3125 184.8125 105.128906 188.695312 C 104.589844 190.449219 104.019531 192.195312 103.457031 193.9375 L 99.269531 206.964844 C 98.390625 209.710938 97.597656 212.511719 96.585938 215.214844 C 96.292969 216 95.960938 216.773438 95.601562 217.527344 C 95.742188 217.246094 95.871094 216.957031 96.011719 216.675781 C 94.914062 218.957031 93.523438 221.078125 91.878906 223.003906 C 92.074219 222.773438 92.273438 222.539062 92.46875 222.3125 C 91.542969 223.386719 90.535156 224.390625 89.464844 225.320312 C 88.917969 225.789062 88.355469 226.238281 87.78125 226.664062 C 87.636719 226.769531 87.492188 226.871094 87.34375 226.980469 C 87.28125 227.023438 87.21875 227.070312 87.152344 227.113281 C 86.871094 227.320312 87.625 226.757812 87.578125 226.824219 C 87.410156 227.0625 86.859375 227.296875 86.613281 227.445312 C 85.417969 228.191406 84.167969 228.84375 82.878906 229.40625 C 82.574219 229.539062 82.269531 229.664062 81.957031 229.789062 C 81.789062 229.855469 81.621094 229.914062 81.453125 229.980469 C 81.335938 230.027344 81.035156 230.128906 81.585938 229.933594 C 82.214844 229.707031 81.695312 229.898438 81.574219 229.933594 C 80.921875 230.15625 80.257812 230.359375 79.585938 230.53125 C 78.015625 230.945312 76.410156 231.222656 74.792969 231.371094 C 75.097656 231.347656 75.398438 231.316406 75.703125 231.292969 C 73.179688 231.507812 70.648438 231.394531 68.15625 230.953125 C 68.46875 231.003906 68.773438 231.066406 69.085938 231.117188 C 66.515625 230.652344 64.027344 229.84375 61.667969 228.71875 C 61.949219 228.855469 62.238281 228.988281 62.519531 229.125 C 60.265625 228.027344 58.167969 226.65625 56.265625 225.03125 C 56.492188 225.230469 56.726562 225.429688 56.953125 225.632812 C 55.324219 224.222656 53.855469 222.648438 52.574219 220.917969 C 52.414062 220.703125 52.234375 220.484375 52.09375 220.253906 C 52.105469 220.277344 52.597656 221.007812 52.292969 220.546875 C 52.226562 220.445312 52.160156 220.34375 52.09375 220.242188 C 51.796875 219.78125 51.515625 219.3125 51.238281 218.839844 C 50.695312 217.886719 50.203125 216.898438 49.769531 215.886719 C 49.664062 215.632812 49.554688 215.375 49.460938 215.117188 C 49.410156 215 49.375 214.84375 49.316406 214.730469 C 49.679688 215.414062 49.496094 215.246094 49.410156 214.992188 C 49.207031 214.371094 49.011719 213.742188 48.84375 213.105469 C 48.597656 212.175781 48.40625 211.230469 48.230469 210.285156 C 48.082031 209.433594 47.933594 208.589844 47.78125 207.738281 C 46.828125 202.238281 45.960938 196.714844 45.230469 191.179688 C 44.75 187.59375 44.332031 183.992188 44.019531 180.386719 C 44.042969 180.691406 44.074219 180.992188 44.097656 181.296875 C 43.875 178.710938 43.703125 176.117188 43.671875 173.523438 C 43.648438 171.570312 43.679688 169.585938 44.019531 167.65625 L 43.851562 168.585938 C 43.972656 167.921875 44.128906 167.253906 44.414062 166.644531 L 44.007812 167.496094 C 44.121094 167.261719 44.246094 167.039062 44.414062 166.84375 L 43.816406 167.53125 C 44.039062 167.28125 44.289062 167.050781 44.558594 166.847656 C 44.621094 166.800781 44.683594 166.757812 44.738281 166.714844 C 44.792969 166.675781 43.761719 167.34375 44.246094 167.058594 C 44.390625 166.972656 44.535156 166.890625 44.679688 166.820312 C 44.816406 166.746094 44.964844 166.691406 45.105469 166.625 C 45.546875 166.429688 44.066406 166.960938 44.535156 166.832031 C 44.613281 166.804688 44.691406 166.78125 44.769531 166.757812 C 45.085938 166.667969 45.410156 166.613281 45.738281 166.585938 C 45.433594 166.609375 45.132812 166.640625 44.828125 166.664062 C 45.320312 166.625 45.8125 166.652344 46.300781 166.734375 C 45.992188 166.679688 45.6875 166.621094 45.375 166.566406 C 45.96875 166.675781 46.535156 166.871094 47.082031 167.128906 C 46.800781 166.992188 46.511719 166.859375 46.230469 166.722656 C 46.890625 167.046875 47.496094 167.460938 48.050781 167.9375 C 47.824219 167.742188 47.589844 167.542969 47.363281 167.339844 C 47.867188 167.777344 48.320312 168.269531 48.734375 168.789062 C 48.84375 168.925781 48.945312 169.066406 49.046875 169.203125 C 49.476562 169.785156 48.488281 168.351562 48.882812 168.964844 C 49.09375 169.292969 49.292969 169.621094 49.476562 169.964844 C 49.675781 170.328125 49.855469 170.699219 50.027344 171.078125 C 50.113281 171.269531 50.195312 171.460938 50.273438 171.652344 C 50.351562 171.84375 50.65625 172.671875 50.386719 171.921875 C 50.117188 171.171875 50.40625 171.988281 50.464844 172.179688 C 50.542969 172.414062 50.617188 172.652344 50.679688 172.894531 C 50.8125 173.359375 50.933594 173.832031 51.035156 174.304688 C 51.304688 175.546875 51.484375 176.808594 51.59375 178.074219 C 51.566406 177.769531 51.539062 177.46875 51.515625 177.164062 C 51.867188 181.394531 51.464844 185.652344 50.71875 189.816406 L 50.886719 188.886719 C 50.398438 191.546875 49.757812 194.175781 49.015625 196.777344 C 48.507812 198.542969 49.40625 200.695312 51.28125 201.210938 C 53.070312 201.699219 55.167969 200.835938 55.714844 198.945312 C 57.324219 193.320312 58.527344 187.460938 58.660156 181.589844 C 58.757812 177.285156 58.246094 173.011719 56.738281 168.96875 C 54.753906 163.679688 50.066406 158.945312 44.027344 159.71875 C 41.75 160.011719 39.175781 161.523438 38.109375 163.609375 C 36.65625 166.453125 36.59375 169.84375 36.621094 172.976562 C 36.65625 177.289062 37.058594 181.609375 37.519531 185.898438 C 37.988281 190.230469 38.570312 194.546875 39.214844 198.847656 C 39.742188 202.371094 40.3125 205.886719 40.921875 209.398438 C 41.191406 210.96875 41.445312 212.550781 41.828125 214.09375 C 42.636719 217.390625 43.964844 220.574219 45.816406 223.421875 C 49.472656 229.046875 54.570312 233.347656 60.75 235.964844 C 66.023438 238.199219 71.871094 238.835938 77.523438 238.085938 C 82.96875 237.367188 88.109375 235.101562 92.5 231.84375 C 97.011719 228.5 100.429688 223.914062 102.671875 218.789062 C 103.550781 216.773438 104.164062 214.632812 104.839844 212.535156 C 105.90625 209.210938 106.972656 205.894531 108.039062 202.574219 C 109.332031 198.542969 110.667969 194.519531 111.910156 190.46875 C 113.773438 184.371094 115.636719 178.277344 117.5 172.179688 C 117.652344 171.660156 117.816406 171.144531 117.972656 170.621094 C 118.511719 168.859375 117.5625 166.699219 115.707031 166.1875 C 113.890625 165.691406 111.847656 166.566406 111.273438 168.453125 " clip-rule="nonzero"/></clipPath><clipPath id="a72214846b"><path d="M 0.480469 0.511719 L 82.410156 0.511719 L 82.410156 79.460938 L 0.480469 79.460938 Z M 0.480469 0.511719 " clip-rule="nonzero"/></clipPath><clipPath id="8c8f0cd16b"><path d="M 75.304688 9.472656 C 74.429688 12.328125 73.554688 15.1875 72.6875 18.042969 C 71.5 21.925781 70.3125 25.8125 69.128906 29.695312 C 68.589844 31.449219 68.019531 33.195312 67.457031 34.9375 L 63.269531 47.964844 C 62.390625 50.710938 61.597656 53.511719 60.585938 56.214844 C 60.292969 57 59.960938 57.773438 59.601562 58.527344 C 59.742188 58.246094 59.871094 57.957031 60.011719 57.675781 C 58.914062 59.957031 57.523438 62.078125 55.878906 64.003906 C 56.074219 63.773438 56.273438 63.539062 56.46875 63.3125 C 55.542969 64.386719 54.535156 65.390625 53.464844 66.320312 C 52.917969 66.789062 52.355469 67.238281 51.78125 67.664062 C 51.636719 67.769531 51.492188 67.871094 51.34375 67.980469 C 51.28125 68.023438 51.21875 68.070312 51.152344 68.113281 C 50.871094 68.320312 51.625 67.757812 51.578125 67.824219 C 51.410156 68.0625 50.859375 68.296875 50.613281 68.445312 C 49.417969 69.191406 48.167969 69.84375 46.878906 70.40625 C 46.574219 70.539062 46.269531 70.664062 45.957031 70.789062 C 45.789062 70.855469 45.621094 70.914062 45.453125 70.980469 C 45.335938 71.027344 45.035156 71.128906 45.585938 70.933594 C 46.214844 70.707031 45.695312 70.898438 45.574219 70.933594 C 44.921875 71.15625 44.257812 71.359375 43.585938 71.53125 C 42.015625 71.945312 40.410156 72.222656 38.792969 72.371094 C 39.097656 72.347656 39.398438 72.316406 39.703125 72.292969 C 37.179688 72.507812 34.648438 72.394531 32.15625 71.953125 C 32.46875 72.003906 32.773438 72.066406 33.085938 72.117188 C 30.515625 71.652344 28.027344 70.84375 25.667969 69.71875 C 25.949219 69.855469 26.238281 69.988281 26.519531 70.125 C 24.265625 69.027344 22.167969 67.65625 20.265625 66.03125 C 20.492188 66.230469 20.726562 66.429688 20.953125 66.632812 C 19.324219 65.222656 17.855469 63.648438 16.574219 61.917969 C 16.414062 61.703125 16.234375 61.484375 16.09375 61.253906 C 16.105469 61.277344 16.597656 62.007812 16.292969 61.546875 C 16.226562 61.445312 16.160156 61.34375 16.09375 61.242188 C 15.796875 60.78125 15.515625 60.3125 15.238281 59.839844 C 14.695312 58.886719 14.203125 57.898438 13.769531 56.886719 C 13.664062 56.632812 13.554688 56.375 13.460938 56.117188 C 13.410156 56 13.375 55.84375 13.316406 55.730469 C 13.679688 56.414062 13.496094 56.246094 13.410156 55.992188 C 13.207031 55.371094 13.011719 54.742188 12.84375 54.105469 C 12.597656 53.175781 12.40625 52.230469 12.230469 51.285156 C 12.082031 50.433594 11.933594 49.589844 11.78125 48.738281 C 10.828125 43.238281 9.960938 37.714844 9.230469 32.179688 C 8.75 28.59375 8.332031 24.992188 8.019531 21.386719 C 8.042969 21.691406 8.074219 21.992188 8.097656 22.296875 C 7.875 19.710938 7.703125 17.117188 7.671875 14.523438 C 7.648438 12.570312 7.679688 10.585938 8.019531 8.65625 L 7.851562 9.585938 C 7.972656 8.921875 8.128906 8.253906 8.414062 7.644531 L 8.007812 8.496094 C 8.121094 8.261719 8.246094 8.039062 8.414062 7.84375 L 7.816406 8.53125 C 8.039062 8.28125 8.289062 8.050781 8.558594 7.847656 C 8.621094 7.800781 8.683594 7.757812 8.738281 7.714844 C 8.792969 7.675781 7.761719 8.34375 8.246094 8.058594 C 8.390625 7.972656 8.535156 7.890625 8.679688 7.820312 C 8.816406 7.746094 8.964844 7.691406 9.105469 7.625 C 9.546875 7.429688 8.066406 7.960938 8.535156 7.832031 C 8.613281 7.804688 8.691406 7.78125 8.769531 7.757812 C 9.085938 7.667969 9.410156 7.613281 9.738281 7.585938 C 9.433594 7.609375 9.132812 7.640625 8.828125 7.664062 C 9.320312 7.625 9.8125 7.652344 10.300781 7.734375 C 9.992188 7.679688 9.6875 7.621094 9.375 7.566406 C 9.96875 7.675781 10.535156 7.871094 11.082031 8.128906 C 10.800781 7.992188 10.511719 7.859375 10.230469 7.722656 C 10.890625 8.046875 11.496094 8.460938 12.050781 8.9375 C 11.824219 8.742188 11.589844 8.542969 11.363281 8.339844 C 11.867188 8.777344 12.320312 9.269531 12.734375 9.789062 C 12.84375 9.925781 12.945312 10.066406 13.046875 10.203125 C 13.476562 10.785156 12.488281 9.351562 12.882812 9.964844 C 13.09375 10.292969 13.292969 10.621094 13.476562 10.964844 C 13.675781 11.328125 13.855469 11.699219 14.027344 12.078125 C 14.113281 12.269531 14.195312 12.460938 14.273438 12.652344 C 14.351562 12.84375 14.65625 13.671875 14.386719 12.921875 C 14.117188 12.171875 14.40625 12.988281 14.464844 13.179688 C 14.542969 13.414062 14.617188 13.652344 14.679688 13.894531 C 14.8125 14.359375 14.933594 14.832031 15.035156 15.304688 C 15.304688 16.546875 15.484375 17.808594 15.59375 19.074219 C 15.566406 18.769531 15.539062 18.46875 15.515625 18.164062 C 15.867188 22.394531 15.464844 26.652344 14.71875 30.816406 L 14.886719 29.886719 C 14.398438 32.546875 13.757812 35.175781 13.015625 37.777344 C 12.507812 39.542969 13.40625 41.695312 15.28125 42.210938 C 17.070312 42.699219 19.167969 41.835938 19.714844 39.945312 C 21.324219 34.320312 22.527344 28.460938 22.660156 22.589844 C 22.757812 18.285156 22.246094 14.011719 20.738281 9.96875 C 18.753906 4.679688 14.066406 -0.0546875 8.027344 0.71875 C 5.75 1.011719 3.175781 2.523438 2.109375 4.609375 C 0.65625 7.453125 0.59375 10.84375 0.621094 13.976562 C 0.65625 18.289062 1.058594 22.609375 1.519531 26.898438 C 1.988281 31.230469 2.570312 35.546875 3.214844 39.847656 C 3.742188 43.371094 4.3125 46.886719 4.921875 50.398438 C 5.191406 51.96875 5.445312 53.550781 5.828125 55.09375 C 6.636719 58.390625 7.964844 61.574219 9.816406 64.421875 C 13.472656 70.046875 18.570312 74.347656 24.75 76.964844 C 30.023438 79.199219 35.871094 79.835938 41.523438 79.085938 C 46.96875 78.367188 52.109375 76.101562 56.5 72.84375 C 61.011719 69.5 64.429688 64.914062 66.671875 59.789062 C 67.550781 57.773438 68.164062 55.632812 68.839844 53.535156 C 69.90625 50.210938 70.972656 46.894531 72.039062 43.574219 C 73.332031 39.542969 74.667969 35.519531 75.910156 31.46875 C 77.773438 25.371094 79.636719 19.277344 81.5 13.179688 C 81.652344 12.660156 81.816406 12.144531 81.972656 11.621094 C 82.511719 9.859375 81.5625 7.699219 79.707031 7.1875 C 77.890625 6.691406 75.847656 7.566406 75.273438 9.453125 " clip-rule="nonzero"/></clipPath><clipPath id="ee8dc55982"><rect x="0" width="83" y="0" height="80"/></clipPath><clipPath id="580a011e6f"><path d="M 91.070312 142.421875 L 110.890625 142.421875 L 110.890625 187.878906 L 91.070312 187.878906 Z M 91.070312 142.421875 " clip-rule="nonzero"/></clipPath><clipPath id="8fd3ead479"><path d="M 103.757812 144.90625 C 103.34375 146.175781 102.9375 147.453125 102.523438 148.722656 C 101.539062 151.757812 100.558594 154.789062 99.574219 157.828125 C 98.382812 161.515625 97.191406 165.207031 95.992188 168.898438 C 94.960938 172.070312 93.9375 175.246094 92.90625 178.429688 C 92.40625 179.984375 91.867188 181.53125 91.398438 183.09375 C 91.390625 183.117188 91.386719 183.136719 91.375 183.160156 C 90.804688 184.910156 91.804688 187.089844 93.636719 187.59375 C 95.472656 188.097656 97.464844 187.203125 98.070312 185.328125 C 98.484375 184.058594 98.890625 182.78125 99.304688 181.511719 C 100.289062 178.476562 101.269531 175.445312 102.253906 172.40625 C 103.445312 168.71875 104.644531 165.027344 105.835938 161.335938 C 106.867188 158.164062 107.890625 154.988281 108.921875 151.804688 C 109.421875 150.253906 109.960938 148.703125 110.429688 147.140625 C 110.4375 147.117188 110.441406 147.097656 110.453125 147.074219 C 111.023438 145.324219 110.023438 143.144531 108.1875 142.640625 C 106.351562 142.136719 104.359375 143.03125 103.757812 144.90625 " clip-rule="nonzero"/></clipPath><clipPath id="962e137077"><path d="M 0.0703125 0.421875 L 19.890625 0.421875 L 19.890625 45.878906 L 0.0703125 45.878906 Z M 0.0703125 0.421875 " clip-rule="nonzero"/></clipPath><clipPath id="bfe1656a07"><path d="M 12.757812 2.90625 C 12.34375 4.175781 11.9375 5.453125 11.523438 6.722656 C 10.539062 9.757812 9.558594 12.789062 8.574219 15.828125 C 7.382812 19.515625 6.191406 23.207031 4.992188 26.898438 C 3.960938 30.070312 2.9375 33.246094 1.90625 36.429688 C 1.40625 37.984375 0.867188 39.53125 0.398438 41.09375 C 0.390625 41.117188 0.386719 41.136719 0.375 41.160156 C -0.195312 42.910156 0.804688 45.089844 2.636719 45.59375 C 4.472656 46.097656 6.464844 45.203125 7.070312 43.328125 C 7.484375 42.058594 7.890625 40.78125 8.304688 39.511719 C 9.289062 36.476562 10.269531 33.445312 11.253906 30.40625 C 12.445312 26.71875 13.644531 23.027344 14.835938 19.335938 C 15.867188 16.164062 16.890625 12.988281 17.921875 9.804688 C 18.421875 8.253906 18.960938 6.703125 19.429688 5.140625 C 19.4375 5.117188 19.441406 5.097656 19.453125 5.074219 C 20.023438 3.324219 19.023438 1.144531 17.1875 0.640625 C 15.351562 0.136719 13.359375 1.03125 12.757812 2.90625 " clip-rule="nonzero"/></clipPath><clipPath id="e2410bc6e7"><rect x="0" width="20" y="0" height="46"/></clipPath><clipPath id="9b1ad94c14"><path d="M 76.714844 129.09375 L 99.273438 129.09375 L 99.273438 183.4375 L 76.714844 183.4375 Z M 76.714844 129.09375 " clip-rule="nonzero"/></clipPath><clipPath id="504a24e35c"><path d="M 92.339844 131.757812 L 90.824219 136.441406 C 89.613281 140.191406 88.398438 143.933594 87.1875 147.683594 L 82.808594 161.222656 C 81.539062 165.140625 80.273438 169.058594 79.003906 172.976562 C 78.386719 174.875 77.734375 176.769531 77.160156 178.679688 C 77.152344 178.703125 77.140625 178.734375 77.136719 178.757812 C 76.566406 180.507812 77.566406 182.6875 79.398438 183.191406 C 81.238281 183.691406 83.226562 182.800781 83.832031 180.925781 C 84.335938 179.363281 84.84375 177.804688 85.347656 176.242188 C 86.558594 172.492188 87.773438 168.746094 88.984375 164.996094 C 90.445312 160.480469 91.90625 155.96875 93.363281 151.460938 C 94.632812 147.542969 95.898438 143.625 97.167969 139.707031 C 97.785156 137.808594 98.4375 135.914062 99.011719 134.003906 C 99.019531 133.980469 99.03125 133.949219 99.035156 133.925781 C 99.605469 132.175781 98.605469 129.996094 96.773438 129.492188 C 94.933594 128.988281 92.945312 129.882812 92.339844 131.757812 " clip-rule="nonzero"/></clipPath><clipPath id="c3d2cfac1f"><path d="M 0.714844 0.09375 L 23.273438 0.09375 L 23.273438 54.4375 L 0.714844 54.4375 Z M 0.714844 0.09375 " clip-rule="nonzero"/></clipPath><clipPath id="3fbdecfbe5"><path d="M 16.339844 2.757812 L 14.824219 7.441406 C 13.613281 11.191406 12.398438 14.933594 11.1875 18.683594 L 6.808594 32.222656 C 5.539062 36.140625 4.273438 40.058594 3.003906 43.976562 C 2.386719 45.875 1.734375 47.769531 1.160156 49.679688 C 1.152344 49.703125 1.140625 49.734375 1.136719 49.757812 C 0.566406 51.507812 1.566406 53.6875 3.398438 54.191406 C 5.238281 54.691406 7.226562 53.800781 7.832031 51.925781 C 8.335938 50.363281 8.84375 48.804688 9.347656 47.242188 C 10.558594 43.492188 11.773438 39.746094 12.984375 35.996094 C 14.445312 31.480469 15.90625 26.96875 17.363281 22.460938 C 18.632812 18.542969 19.898438 14.625 21.167969 10.707031 C 21.785156 8.808594 22.4375 6.914062 23.011719 5.003906 C 23.019531 4.980469 23.03125 4.949219 23.035156 4.925781 C 23.605469 3.175781 22.605469 0.996094 20.773438 0.492188 C 18.933594 -0.0117188 16.945312 0.882812 16.339844 2.757812 " clip-rule="nonzero"/></clipPath><clipPath id="2dc14f668e"><rect x="0" width="24" y="0" height="55"/></clipPath><clipPath id="e133dfa8e6"><path d="M 0.519531 9 L 29 9 L 29 36 L 0.519531 36 Z M 0.519531 9 " clip-rule="nonzero"/></clipPath><clipPath id="b5ecc8bc8c"><rect x="0" width="211" y="0" height="95"/></clipPath></defs><g clip-path="url(#8012825b27)"><g clip-path="url(#7590f6916f)"><g transform="matrix(1, 0, 0, 1, 62, 130)"><g clip-path="url(#503e8bc537)"><g clip-path="url(#417381d55a)"><g clip-path="url(#610e06ac05)"><rect x="-144.5" width="540" fill="#00bfbb" height="539.999987" y="-212.499998" fill-opacity="1"/></g></g></g></g></g></g><g clip-path="url(#344d29e2ca)"><g clip-path="url(#67ddea5aad)"><g transform="matrix(1, 0, 0, 1, 36, 159)"><g clip-path="url(#ee8dc55982)"><g clip-path="url(#a72214846b)"><g clip-path="url(#8c8f0cd16b)"><rect x="-118.5" width="540" fill="#00bfbb" height="539.999987" y="-241.499998" fill-opacity="1"/></g></g></g></g></g></g><g clip-path="url(#580a011e6f)"><g clip-path="url(#8fd3ead479)"><g transform="matrix(1, 0, 0, 1, 91, 142)"><g clip-path="url(#e2410bc6e7)"><g clip-path="url(#962e137077)"><g clip-path="url(#bfe1656a07)"><rect x="-173.5" width="540" fill="#00bfbb" height="539.999987" y="-224.499998" fill-opacity="1"/></g></g></g></g></g></g><g clip-path="url(#9b1ad94c14)"><g clip-path="url(#504a24e35c)"><g transform="matrix(1, 0, 0, 1, 76, 129)"><g clip-path="url(#2dc14f668e)"><g clip-path="url(#c3d2cfac1f)"><g clip-path="url(#3fbdecfbe5)"><rect x="-158.5" width="540" fill="#00bfbb" height="539.999987" y="-211.499998" fill-opacity="1"/></g></g></g></g></g></g><g transform="matrix(1, 0, 0, 1, 125, 151)"><g clip-path="url(#b5ecc8bc8c)"><g clip-path="url(#e133dfa8e6)"><g fill="#00bfbb" fill-opacity="1"><g transform="translate(1.72193, 35.72982)"><g><path d="M 17.390625 -9.34375 L 17.390625 0 L 8.71875 0 L 8.71875 -9.453125 L -1 -25.75 L 8.171875 -25.75 L 13.421875 -16.84375 L 18.71875 -25.75 L 27.109375 -25.75 Z M 17.390625 -9.34375 "/></g></g></g></g><g fill="#00bfbb" fill-opacity="1"><g transform="translate(27.832404, 35.72982)"><g><path d="M 15.59375 0.59375 C 12.820312 0.59375 10.332031 0.015625 8.125 -1.140625 C 5.914062 -2.296875 4.1875 -3.894531 2.9375 -5.9375 C 1.6875 -7.988281 1.0625 -10.300781 1.0625 -12.875 C 1.0625 -15.445312 1.6875 -17.753906 2.9375 -19.796875 C 4.1875 -21.847656 5.914062 -23.445312 8.125 -24.59375 C 10.332031 -25.75 12.820312 -26.328125 15.59375 -26.328125 C 18.363281 -26.328125 20.851562 -25.75 23.0625 -24.59375 C 25.269531 -23.445312 27 -21.847656 28.25 -19.796875 C 29.5 -17.753906 30.125 -15.445312 30.125 -12.875 C 30.125 -10.300781 29.5 -7.988281 28.25 -5.9375 C 27 -3.894531 25.269531 -2.296875 23.0625 -1.140625 C 20.851562 0.015625 18.363281 0.59375 15.59375 0.59375 Z M 15.59375 -6.4375 C 16.675781 -6.4375 17.648438 -6.695312 18.515625 -7.21875 C 19.390625 -7.75 20.082031 -8.5 20.59375 -9.46875 C 21.113281 -10.4375 21.375 -11.570312 21.375 -12.875 C 21.375 -14.175781 21.113281 -15.3125 20.59375 -16.28125 C 20.082031 -17.25 19.390625 -17.992188 18.515625 -18.515625 C 17.648438 -19.046875 16.675781 -19.3125 15.59375 -19.3125 C 14.519531 -19.3125 13.546875 -19.046875 12.671875 -18.515625 C 11.796875 -17.992188 11.101562 -17.25 10.59375 -16.28125 C 10.082031 -15.3125 9.828125 -14.175781 9.828125 -12.875 C 9.828125 -11.570312 10.082031 -10.4375 10.59375 -9.46875 C 11.101562 -8.5 11.796875 -7.75 12.671875 -7.21875 C 13.546875 -6.695312 14.519531 -6.4375 15.59375 -6.4375 Z M 15.59375 -6.4375 "/></g></g></g><g fill="#ffffff" fill-opacity="1"><g transform="translate(1.72193, 68.077861)"><g><path d="M 13.90625 -25.75 C 17.238281 -25.75 19.859375 -24.953125 21.765625 -23.359375 C 23.679688 -21.765625 24.640625 -19.566406 24.640625 -16.765625 C 24.640625 -13.972656 23.679688 -11.78125 21.765625 -10.1875 C 19.859375 -8.59375 17.238281 -7.796875 13.90625 -7.796875 L 7.546875 -7.796875 L 7.546875 0 L 3.859375 0 L 3.859375 -25.75 Z M 13.796875 -11 C 16.117188 -11 17.894531 -11.492188 19.125 -12.484375 C 20.351562 -13.484375 20.96875 -14.910156 20.96875 -16.765625 C 20.96875 -18.628906 20.351562 -20.054688 19.125 -21.046875 C 17.894531 -22.046875 16.117188 -22.546875 13.796875 -22.546875 L 7.546875 -22.546875 L 7.546875 -11 Z M 13.796875 -11 "/></g></g></g><g fill="#ffffff" fill-opacity="1"><g transform="translate(28.273703, 68.077861)"><g><path d="M 20.265625 -6.4375 L 6.578125 -6.4375 L 3.75 0 L -0.03125 0 L 11.625 -25.75 L 15.265625 -25.75 L 26.953125 0 L 23.09375 0 Z M 18.984375 -9.375 L 13.421875 -22 L 7.875 -9.375 Z M 18.984375 -9.375 "/></g></g></g><g fill="#ffffff" fill-opacity="1"><g transform="translate(55.193229, 68.077861)"><g><path d="M 21.078125 0 L 15.515625 -7.90625 C 14.828125 -7.851562 14.289062 -7.828125 13.90625 -7.828125 L 7.546875 -7.828125 L 7.546875 0 L 3.859375 0 L 3.859375 -25.75 L 13.90625 -25.75 C 17.238281 -25.75 19.859375 -24.953125 21.765625 -23.359375 C 23.679688 -21.765625 24.640625 -19.566406 24.640625 -16.765625 C 24.640625 -14.785156 24.148438 -13.09375 23.171875 -11.6875 C 22.191406 -10.289062 20.796875 -9.273438 18.984375 -8.640625 L 25.078125 0 Z M 13.796875 -10.953125 C 16.117188 -10.953125 17.894531 -11.457031 19.125 -12.46875 C 20.351562 -13.476562 20.96875 -14.910156 20.96875 -16.765625 C 20.96875 -18.628906 20.351562 -20.054688 19.125 -21.046875 C 17.894531 -22.046875 16.117188 -22.546875 13.796875 -22.546875 L 7.546875 -22.546875 L 7.546875 -10.953125 Z M 13.796875 -10.953125 "/></g></g></g><g fill="#ffffff" fill-opacity="1"><g transform="translate(81.928884, 68.077861)"><g><path d="M 8.96875 -22.546875 L 0.140625 -22.546875 L 0.140625 -25.75 L 21.4375 -25.75 L 21.4375 -22.546875 L 12.609375 -22.546875 L 12.609375 0 L 8.96875 0 Z M 8.96875 -22.546875 "/></g></g></g><g fill="#ffffff" fill-opacity="1"><g transform="translate(103.51599, 68.077861)"><g><path d="M 3.859375 -25.75 L 7.546875 -25.75 L 7.546875 0 L 3.859375 0 Z M 3.859375 -25.75 "/></g></g></g><g fill="#ffffff" fill-opacity="1"><g transform="translate(114.916337, 68.077861)"><g><path d="M 15.375 0.296875 C 12.800781 0.296875 10.476562 -0.269531 8.40625 -1.40625 C 6.332031 -2.550781 4.707031 -4.125 3.53125 -6.125 C 2.351562 -8.125 1.765625 -10.375 1.765625 -12.875 C 1.765625 -15.375 2.351562 -17.625 3.53125 -19.625 C 4.707031 -21.625 6.335938 -23.191406 8.421875 -24.328125 C 10.503906 -25.472656 12.832031 -26.046875 15.40625 -26.046875 C 17.414062 -26.046875 19.253906 -25.707031 20.921875 -25.03125 C 22.597656 -24.351562 24.019531 -23.351562 25.1875 -22.03125 L 22.796875 -19.71875 C 20.867188 -21.75 18.457031 -22.765625 15.5625 -22.765625 C 13.644531 -22.765625 11.914062 -22.332031 10.375 -21.46875 C 8.832031 -20.613281 7.625 -19.429688 6.75 -17.921875 C 5.875 -16.421875 5.4375 -14.738281 5.4375 -12.875 C 5.4375 -11.007812 5.875 -9.320312 6.75 -7.8125 C 7.625 -6.300781 8.832031 -5.117188 10.375 -4.265625 C 11.914062 -3.410156 13.644531 -2.984375 15.5625 -2.984375 C 18.425781 -2.984375 20.835938 -4.007812 22.796875 -6.0625 L 25.1875 -3.75 C 24.019531 -2.425781 22.59375 -1.421875 20.90625 -0.734375 C 19.226562 -0.046875 17.382812 0.296875 15.375 0.296875 Z M 15.375 0.296875 "/></g></g></g><g fill="#ffffff" fill-opacity="1"><g transform="translate(141.504891, 68.077861)"><g><path d="M 3.859375 -25.75 L 7.546875 -25.75 L 7.546875 0 L 3.859375 0 Z M 3.859375 -25.75 "/></g></g></g><g fill="#ffffff" fill-opacity="1"><g transform="translate(152.905238, 68.077861)"><g><path d="M 13.90625 -25.75 C 17.238281 -25.75 19.859375 -24.953125 21.765625 -23.359375 C 23.679688 -21.765625 24.640625 -19.566406 24.640625 -16.765625 C 24.640625 -13.972656 23.679688 -11.78125 21.765625 -10.1875 C 19.859375 -8.59375 17.238281 -7.796875 13.90625 -7.796875 L 7.546875 -7.796875 L 7.546875 0 L 3.859375 0 L 3.859375 -25.75 Z M 13.796875 -11 C 16.117188 -11 17.894531 -11.492188 19.125 -12.484375 C 20.351562 -13.484375 20.96875 -14.910156 20.96875 -16.765625 C 20.96875 -18.628906 20.351562 -20.054688 19.125 -21.046875 C 17.894531 -22.046875 16.117188 -22.546875 13.796875 -22.546875 L 7.546875 -22.546875 L 7.546875 -11 Z M 13.796875 -11 "/></g></g></g><g fill="#ffffff" fill-opacity="1"><g transform="translate(179.457001, 68.077861)"><g><path d="M 15.484375 0.296875 C 12.890625 0.296875 10.546875 -0.269531 8.453125 -1.40625 C 6.367188 -2.550781 4.734375 -4.128906 3.546875 -6.140625 C 2.359375 -8.148438 1.765625 -10.394531 1.765625 -12.875 C 1.765625 -15.351562 2.359375 -17.597656 3.546875 -19.609375 C 4.734375 -21.617188 6.367188 -23.191406 8.453125 -24.328125 C 10.546875 -25.472656 12.890625 -26.046875 15.484375 -26.046875 C 18.054688 -26.046875 20.382812 -25.472656 22.46875 -24.328125 C 24.550781 -23.191406 26.179688 -21.625 27.359375 -19.625 C 28.535156 -17.625 29.125 -15.375 29.125 -12.875 C 29.125 -10.375 28.535156 -8.125 27.359375 -6.125 C 26.179688 -4.125 24.550781 -2.550781 22.46875 -1.40625 C 20.382812 -0.269531 18.054688 0.296875 15.484375 0.296875 Z M 15.484375 -2.984375 C 17.367188 -2.984375 19.066406 -3.410156 20.578125 -4.265625 C 22.085938 -5.117188 23.273438 -6.300781 24.140625 -7.8125 C 25.015625 -9.320312 25.453125 -11.007812 25.453125 -12.875 C 25.453125 -14.738281 25.015625 -16.421875 24.140625 -17.921875 C 23.273438 -19.429688 22.085938 -20.613281 20.578125 -21.46875 C 19.066406 -22.332031 17.367188 -22.765625 15.484375 -22.765625 C 13.597656 -22.765625 11.890625 -22.332031 10.359375 -21.46875 C 8.828125 -20.613281 7.625 -19.429688 6.75 -17.921875 C 5.875 -16.421875 5.4375 -14.738281 5.4375 -12.875 C 5.4375 -11.007812 5.875 -9.320312 6.75 -7.8125 C 7.625 -6.300781 8.828125 -5.117188 10.359375 -4.265625 C 11.890625 -3.410156 13.597656 -2.984375 15.484375 -2.984375 Z M 15.484375 -2.984375 "/></g></g></g><g fill="#ffffff" fill-opacity="1"><g transform="translate(1.72193, 90.242259)"><g><path d="M 7.71875 -3.34375 L 1.625 -3.34375 C 1.675781 -2.582031 1.960938 -1.96875 2.484375 -1.5 C 3.015625 -1.03125 3.679688 -0.796875 4.484375 -0.796875 C 4.929688 -0.796875 5.34375 -0.875 5.71875 -1.03125 C 6.101562 -1.195312 6.4375 -1.441406 6.71875 -1.765625 L 7.265625 -1.125 C 6.941406 -0.738281 6.535156 -0.441406 6.046875 -0.234375 C 5.566406 -0.0351562 5.035156 0.0625 4.453125 0.0625 C 3.710938 0.0625 3.050781 -0.09375 2.46875 -0.40625 C 1.894531 -0.726562 1.445312 -1.171875 1.125 -1.734375 C 0.800781 -2.296875 0.640625 -2.929688 0.640625 -3.640625 C 0.640625 -4.347656 0.789062 -4.984375 1.09375 -5.546875 C 1.40625 -6.109375 1.832031 -6.546875 2.375 -6.859375 C 2.914062 -7.179688 3.519531 -7.34375 4.1875 -7.34375 C 4.863281 -7.34375 5.46875 -7.179688 6 -6.859375 C 6.539062 -6.546875 6.960938 -6.109375 7.265625 -5.546875 C 7.566406 -4.992188 7.71875 -4.359375 7.71875 -3.640625 Z M 4.1875 -6.5 C 3.488281 -6.5 2.898438 -6.273438 2.421875 -5.828125 C 1.953125 -5.378906 1.6875 -4.789062 1.625 -4.0625 L 6.78125 -4.0625 C 6.71875 -4.789062 6.445312 -5.378906 5.96875 -5.828125 C 5.5 -6.273438 4.90625 -6.5 4.1875 -6.5 Z M 4.1875 -6.5 "/></g></g></g><g fill="#ffffff" fill-opacity="1"><g transform="translate(12.839339, 90.242259)"><g><path d="M 3.328125 0.0625 C 2.734375 0.0625 2.164062 -0.0195312 1.625 -0.1875 C 1.082031 -0.351562 0.660156 -0.566406 0.359375 -0.828125 L 0.796875 -1.609375 C 1.109375 -1.367188 1.492188 -1.171875 1.953125 -1.015625 C 2.410156 -0.867188 2.890625 -0.796875 3.390625 -0.796875 C 4.054688 -0.796875 4.546875 -0.894531 4.859375 -1.09375 C 5.179688 -1.300781 5.34375 -1.597656 5.34375 -1.984375 C 5.34375 -2.242188 5.253906 -2.453125 5.078125 -2.609375 C 4.898438 -2.765625 4.675781 -2.878906 4.40625 -2.953125 C 4.144531 -3.035156 3.789062 -3.113281 3.34375 -3.1875 C 2.757812 -3.289062 2.285156 -3.398438 1.921875 -3.515625 C 1.566406 -3.640625 1.257812 -3.835938 1 -4.109375 C 0.75 -4.390625 0.625 -4.773438 0.625 -5.265625 C 0.625 -5.867188 0.875 -6.363281 1.375 -6.75 C 1.882812 -7.144531 2.59375 -7.34375 3.5 -7.34375 C 3.96875 -7.34375 4.4375 -7.28125 4.90625 -7.15625 C 5.382812 -7.03125 5.773438 -6.863281 6.078125 -6.65625 L 5.640625 -5.875 C 5.046875 -6.289062 4.332031 -6.5 3.5 -6.5 C 2.875 -6.5 2.398438 -6.382812 2.078125 -6.15625 C 1.765625 -5.9375 1.609375 -5.644531 1.609375 -5.28125 C 1.609375 -5.007812 1.695312 -4.789062 1.875 -4.625 C 2.050781 -4.457031 2.273438 -4.332031 2.546875 -4.25 C 2.816406 -4.175781 3.1875 -4.097656 3.65625 -4.015625 C 4.238281 -3.898438 4.703125 -3.785156 5.046875 -3.671875 C 5.398438 -3.566406 5.703125 -3.378906 5.953125 -3.109375 C 6.203125 -2.847656 6.328125 -2.476562 6.328125 -2 C 6.328125 -1.363281 6.0625 -0.859375 5.53125 -0.484375 C 5 -0.117188 4.265625 0.0625 3.328125 0.0625 Z M 3.328125 0.0625 "/></g></g></g><g fill="#ffffff" fill-opacity="1"><g transform="translate(22.364758, 90.242259)"><g><path d="M 5.203125 -0.4375 C 5.015625 -0.269531 4.785156 -0.144531 4.515625 -0.0625 C 4.242188 0.0195312 3.960938 0.0625 3.671875 0.0625 C 2.984375 0.0625 2.453125 -0.117188 2.078125 -0.484375 C 1.710938 -0.847656 1.53125 -1.367188 1.53125 -2.046875 L 1.53125 -6.453125 L 0.234375 -6.453125 L 0.234375 -7.28125 L 1.53125 -7.28125 L 1.53125 -8.875 L 2.515625 -8.875 L 2.515625 -7.28125 L 4.734375 -7.28125 L 4.734375 -6.453125 L 2.515625 -6.453125 L 2.515625 -2.109375 C 2.515625 -1.671875 2.625 -1.335938 2.84375 -1.109375 C 3.0625 -0.890625 3.375 -0.78125 3.78125 -0.78125 C 3.976562 -0.78125 4.171875 -0.8125 4.359375 -0.875 C 4.554688 -0.9375 4.722656 -1.03125 4.859375 -1.15625 Z M 5.203125 -0.4375 "/></g></g></g><g fill="#ffffff" fill-opacity="1"><g transform="translate(30.741169, 90.242259)"><g><path d="M 7.9375 -7.28125 L 7.9375 0 L 6.984375 0 L 6.984375 -1.328125 C 6.734375 -0.890625 6.378906 -0.546875 5.921875 -0.296875 C 5.472656 -0.0546875 4.957031 0.0625 4.375 0.0625 C 3.425781 0.0625 2.675781 -0.195312 2.125 -0.71875 C 1.570312 -1.25 1.296875 -2.03125 1.296875 -3.0625 L 1.296875 -7.28125 L 2.28125 -7.28125 L 2.28125 -3.15625 C 2.28125 -2.382812 2.46875 -1.800781 2.84375 -1.40625 C 3.226562 -1.007812 3.769531 -0.8125 4.46875 -0.8125 C 5.238281 -0.8125 5.84375 -1.046875 6.28125 -1.515625 C 6.726562 -1.984375 6.953125 -2.632812 6.953125 -3.46875 L 6.953125 -7.28125 Z M 7.9375 -7.28125 "/></g></g></g><g fill="#ffffff" fill-opacity="1"><g transform="translate(42.813779, 90.242259)"><g><path d="M 8.015625 -10.265625 L 8.015625 0 L 7.078125 0 L 7.078125 -1.4375 C 6.773438 -0.945312 6.378906 -0.570312 5.890625 -0.3125 C 5.410156 -0.0625 4.867188 0.0625 4.265625 0.0625 C 3.578125 0.0625 2.957031 -0.09375 2.40625 -0.40625 C 1.851562 -0.71875 1.421875 -1.15625 1.109375 -1.71875 C 0.796875 -2.28125 0.640625 -2.921875 0.640625 -3.640625 C 0.640625 -4.359375 0.796875 -5 1.109375 -5.5625 C 1.421875 -6.125 1.851562 -6.5625 2.40625 -6.875 C 2.957031 -7.1875 3.578125 -7.34375 4.265625 -7.34375 C 4.859375 -7.34375 5.390625 -7.21875 5.859375 -6.96875 C 6.335938 -6.726562 6.726562 -6.367188 7.03125 -5.890625 L 7.03125 -10.265625 Z M 4.34375 -0.796875 C 4.851562 -0.796875 5.3125 -0.914062 5.71875 -1.15625 C 6.132812 -1.394531 6.457031 -1.726562 6.6875 -2.15625 C 6.925781 -2.59375 7.046875 -3.085938 7.046875 -3.640625 C 7.046875 -4.191406 6.925781 -4.679688 6.6875 -5.109375 C 6.457031 -5.546875 6.132812 -5.882812 5.71875 -6.125 C 5.3125 -6.363281 4.851562 -6.484375 4.34375 -6.484375 C 3.832031 -6.484375 3.367188 -6.363281 2.953125 -6.125 C 2.546875 -5.882812 2.222656 -5.546875 1.984375 -5.109375 C 1.753906 -4.679688 1.640625 -4.191406 1.640625 -3.640625 C 1.640625 -3.085938 1.753906 -2.59375 1.984375 -2.15625 C 2.222656 -1.726562 2.546875 -1.394531 2.953125 -1.15625 C 3.367188 -0.914062 3.832031 -0.796875 4.34375 -0.796875 Z M 4.34375 -0.796875 "/></g></g></g><g fill="#ffffff" fill-opacity="1"><g transform="translate(54.955601, 90.242259)"><g><path d="M 1.375 -7.28125 L 2.359375 -7.28125 L 2.359375 0 L 1.375 0 Z M 1.859375 -8.875 C 1.660156 -8.875 1.488281 -8.941406 1.34375 -9.078125 C 1.207031 -9.222656 1.140625 -9.390625 1.140625 -9.578125 C 1.140625 -9.765625 1.207031 -9.925781 1.34375 -10.0625 C 1.488281 -10.195312 1.660156 -10.265625 1.859375 -10.265625 C 2.066406 -10.265625 2.238281 -10.195312 2.375 -10.0625 C 2.507812 -9.9375 2.578125 -9.78125 2.578125 -9.59375 C 2.578125 -9.394531 2.507812 -9.222656 2.375 -9.078125 C 2.238281 -8.941406 2.066406 -8.875 1.859375 -8.875 Z M 1.859375 -8.875 "/></g></g></g><g fill="#ffffff" fill-opacity="1"><g transform="translate(61.435467, 90.242259)"><g><path d="M 4.34375 0.0625 C 3.644531 0.0625 3.015625 -0.09375 2.453125 -0.40625 C 1.890625 -0.726562 1.445312 -1.171875 1.125 -1.734375 C 0.800781 -2.296875 0.640625 -2.929688 0.640625 -3.640625 C 0.640625 -4.347656 0.800781 -4.984375 1.125 -5.546875 C 1.445312 -6.109375 1.890625 -6.546875 2.453125 -6.859375 C 3.015625 -7.179688 3.644531 -7.34375 4.34375 -7.34375 C 5.050781 -7.34375 5.6875 -7.179688 6.25 -6.859375 C 6.8125 -6.546875 7.25 -6.109375 7.5625 -5.546875 C 7.882812 -4.984375 8.046875 -4.347656 8.046875 -3.640625 C 8.046875 -2.929688 7.882812 -2.296875 7.5625 -1.734375 C 7.25 -1.171875 6.8125 -0.726562 6.25 -0.40625 C 5.6875 -0.09375 5.050781 0.0625 4.34375 0.0625 Z M 4.34375 -0.796875 C 4.863281 -0.796875 5.328125 -0.914062 5.734375 -1.15625 C 6.148438 -1.394531 6.472656 -1.726562 6.703125 -2.15625 C 6.929688 -2.59375 7.046875 -3.085938 7.046875 -3.640625 C 7.046875 -4.191406 6.929688 -4.679688 6.703125 -5.109375 C 6.472656 -5.546875 6.148438 -5.882812 5.734375 -6.125 C 5.328125 -6.363281 4.863281 -6.484375 4.34375 -6.484375 C 3.832031 -6.484375 3.367188 -6.363281 2.953125 -6.125 C 2.546875 -5.882812 2.222656 -5.546875 1.984375 -5.109375 C 1.753906 -4.679688 1.640625 -4.191406 1.640625 -3.640625 C 1.640625 -3.085938 1.753906 -2.59375 1.984375 -2.15625 C 2.222656 -1.726562 2.546875 -1.394531 2.953125 -1.15625 C 3.367188 -0.914062 3.832031 -0.796875 4.34375 -0.796875 Z M 4.34375 -0.796875 "/></g></g></g><g fill="#ffffff" fill-opacity="1"><g transform="translate(72.871279, 90.242259)"><g><path d="M 3.328125 0.0625 C 2.734375 0.0625 2.164062 -0.0195312 1.625 -0.1875 C 1.082031 -0.351562 0.660156 -0.566406 0.359375 -0.828125 L 0.796875 -1.609375 C 1.109375 -1.367188 1.492188 -1.171875 1.953125 -1.015625 C 2.410156 -0.867188 2.890625 -0.796875 3.390625 -0.796875 C 4.054688 -0.796875 4.546875 -0.894531 4.859375 -1.09375 C 5.179688 -1.300781 5.34375 -1.597656 5.34375 -1.984375 C 5.34375 -2.242188 5.253906 -2.453125 5.078125 -2.609375 C 4.898438 -2.765625 4.675781 -2.878906 4.40625 -2.953125 C 4.144531 -3.035156 3.789062 -3.113281 3.34375 -3.1875 C 2.757812 -3.289062 2.285156 -3.398438 1.921875 -3.515625 C 1.566406 -3.640625 1.257812 -3.835938 1 -4.109375 C 0.75 -4.390625 0.625 -4.773438 0.625 -5.265625 C 0.625 -5.867188 0.875 -6.363281 1.375 -6.75 C 1.882812 -7.144531 2.59375 -7.34375 3.5 -7.34375 C 3.96875 -7.34375 4.4375 -7.28125 4.90625 -7.15625 C 5.382812 -7.03125 5.773438 -6.863281 6.078125 -6.65625 L 5.640625 -5.875 C 5.046875 -6.289062 4.332031 -6.5 3.5 -6.5 C 2.875 -6.5 2.398438 -6.382812 2.078125 -6.15625 C 1.765625 -5.9375 1.609375 -5.644531 1.609375 -5.28125 C 1.609375 -5.007812 1.695312 -4.789062 1.875 -4.625 C 2.050781 -4.457031 2.273438 -4.332031 2.546875 -4.25 C 2.816406 -4.175781 3.1875 -4.097656 3.65625 -4.015625 C 4.238281 -3.898438 4.703125 -3.785156 5.046875 -3.671875 C 5.398438 -3.566406 5.703125 -3.378906 5.953125 -3.109375 C 6.203125 -2.847656 6.328125 -2.476562 6.328125 -2 C 6.328125 -1.363281 6.0625 -0.859375 5.53125 -0.484375 C 5 -0.117188 4.265625 0.0625 3.328125 0.0625 Z M 3.328125 0.0625 "/></g></g></g><g fill="#ffffff" fill-opacity="1"><g transform="translate(82.396699, 90.242259)"><g/></g></g><g fill="#ffffff" fill-opacity="1"><g transform="translate(88.779656, 90.242259)"><g><path d="M 4.390625 0.0625 C 3.671875 0.0625 3.023438 -0.09375 2.453125 -0.40625 C 1.890625 -0.71875 1.445312 -1.15625 1.125 -1.71875 C 0.800781 -2.289062 0.640625 -2.929688 0.640625 -3.640625 C 0.640625 -4.347656 0.800781 -4.984375 1.125 -5.546875 C 1.445312 -6.109375 1.890625 -6.546875 2.453125 -6.859375 C 3.023438 -7.179688 3.671875 -7.34375 4.390625 -7.34375 C 5.015625 -7.34375 5.570312 -7.21875 6.0625 -6.96875 C 6.5625 -6.726562 6.953125 -6.367188 7.234375 -5.890625 L 6.5 -5.40625 C 6.257812 -5.757812 5.957031 -6.023438 5.59375 -6.203125 C 5.226562 -6.390625 4.828125 -6.484375 4.390625 -6.484375 C 3.859375 -6.484375 3.382812 -6.363281 2.96875 -6.125 C 2.550781 -5.882812 2.222656 -5.546875 1.984375 -5.109375 C 1.753906 -4.679688 1.640625 -4.191406 1.640625 -3.640625 C 1.640625 -3.078125 1.753906 -2.582031 1.984375 -2.15625 C 2.222656 -1.726562 2.550781 -1.394531 2.96875 -1.15625 C 3.382812 -0.914062 3.859375 -0.796875 4.390625 -0.796875 C 4.828125 -0.796875 5.226562 -0.882812 5.59375 -1.0625 C 5.957031 -1.238281 6.257812 -1.507812 6.5 -1.875 L 7.234375 -1.375 C 6.953125 -0.90625 6.5625 -0.546875 6.0625 -0.296875 C 5.5625 -0.0546875 5.003906 0.0625 4.390625 0.0625 Z M 4.390625 0.0625 "/></g></g></g><g fill="#ffffff" fill-opacity="1"><g transform="translate(99.329489, 90.242259)"><g><path d="M 1.375 -10.265625 L 2.359375 -10.265625 L 2.359375 0 L 1.375 0 Z M 1.375 -10.265625 "/></g></g></g><g fill="#ffffff" fill-opacity="1"><g transform="translate(105.809355, 90.242259)"><g><path d="M 1.375 -7.28125 L 2.359375 -7.28125 L 2.359375 0 L 1.375 0 Z M 2.859375 -10.140625 L 4.171875 -10.140625 L 1.9375 -8.421875 L 0.96875 -8.421875 Z M 2.859375 -10.140625 "/></g></g></g><g fill="#ffffff" fill-opacity="1"><g transform="translate(112.289221, 90.242259)"><g><path d="M 5.078125 -7.34375 C 5.992188 -7.34375 6.722656 -7.078125 7.265625 -6.546875 C 7.804688 -6.015625 8.078125 -5.238281 8.078125 -4.21875 L 8.078125 0 L 7.09375 0 L 7.09375 -4.125 C 7.09375 -4.882812 6.898438 -5.460938 6.515625 -5.859375 C 6.140625 -6.253906 5.601562 -6.453125 4.90625 -6.453125 C 4.113281 -6.453125 3.488281 -6.21875 3.03125 -5.75 C 2.582031 -5.28125 2.359375 -4.640625 2.359375 -3.828125 L 2.359375 0 L 1.375 0 L 1.375 -7.28125 L 2.3125 -7.28125 L 2.3125 -5.9375 C 2.582031 -6.382812 2.953125 -6.726562 3.421875 -6.96875 C 3.898438 -7.21875 4.453125 -7.34375 5.078125 -7.34375 Z M 5.078125 -7.34375 "/></g></g></g><g fill="#ffffff" fill-opacity="1"><g transform="translate(124.417204, 90.242259)"><g><path d="M 1.375 -7.28125 L 2.359375 -7.28125 L 2.359375 0 L 1.375 0 Z M 1.859375 -8.875 C 1.660156 -8.875 1.488281 -8.941406 1.34375 -9.078125 C 1.207031 -9.222656 1.140625 -9.390625 1.140625 -9.578125 C 1.140625 -9.765625 1.207031 -9.925781 1.34375 -10.0625 C 1.488281 -10.195312 1.660156 -10.265625 1.859375 -10.265625 C 2.066406 -10.265625 2.238281 -10.195312 2.375 -10.0625 C 2.507812 -9.9375 2.578125 -9.78125 2.578125 -9.59375 C 2.578125 -9.394531 2.507812 -9.222656 2.375 -9.078125 C 2.238281 -8.941406 2.066406 -8.875 1.859375 -8.875 Z M 1.859375 -8.875 "/></g></g></g><g fill="#ffffff" fill-opacity="1"><g transform="translate(130.89707, 90.242259)"><g><path d="M 4.390625 0.0625 C 3.671875 0.0625 3.023438 -0.09375 2.453125 -0.40625 C 1.890625 -0.71875 1.445312 -1.15625 1.125 -1.71875 C 0.800781 -2.289062 0.640625 -2.929688 0.640625 -3.640625 C 0.640625 -4.347656 0.800781 -4.984375 1.125 -5.546875 C 1.445312 -6.109375 1.890625 -6.546875 2.453125 -6.859375 C 3.023438 -7.179688 3.671875 -7.34375 4.390625 -7.34375 C 5.015625 -7.34375 5.570312 -7.21875 6.0625 -6.96875 C 6.5625 -6.726562 6.953125 -6.367188 7.234375 -5.890625 L 6.5 -5.40625 C 6.257812 -5.757812 5.957031 -6.023438 5.59375 -6.203125 C 5.226562 -6.390625 4.828125 -6.484375 4.390625 -6.484375 C 3.859375 -6.484375 3.382812 -6.363281 2.96875 -6.125 C 2.550781 -5.882812 2.222656 -5.546875 1.984375 -5.109375 C 1.753906 -4.679688 1.640625 -4.191406 1.640625 -3.640625 C 1.640625 -3.078125 1.753906 -2.582031 1.984375 -2.15625 C 2.222656 -1.726562 2.550781 -1.394531 2.96875 -1.15625 C 3.382812 -0.914062 3.859375 -0.796875 4.390625 -0.796875 C 4.828125 -0.796875 5.226562 -0.882812 5.59375 -1.0625 C 5.957031 -1.238281 6.257812 -1.507812 6.5 -1.875 L 7.234375 -1.375 C 6.953125 -0.90625 6.5625 -0.546875 6.0625 -0.296875 C 5.5625 -0.0546875 5.003906 0.0625 4.390625 0.0625 Z M 4.390625 0.0625 "/></g></g></g><g fill="#ffffff" fill-opacity="1"><g transform="translate(141.446903, 90.242259)"><g><path d="M 4.34375 0.0625 C 3.644531 0.0625 3.015625 -0.09375 2.453125 -0.40625 C 1.890625 -0.726562 1.445312 -1.171875 1.125 -1.734375 C 0.800781 -2.296875 0.640625 -2.929688 0.640625 -3.640625 C 0.640625 -4.347656 0.800781 -4.984375 1.125 -5.546875 C 1.445312 -6.109375 1.890625 -6.546875 2.453125 -6.859375 C 3.015625 -7.179688 3.644531 -7.34375 4.34375 -7.34375 C 5.050781 -7.34375 5.6875 -7.179688 6.25 -6.859375 C 6.8125 -6.546875 7.25 -6.109375 7.5625 -5.546875 C 7.882812 -4.984375 8.046875 -4.347656 8.046875 -3.640625 C 8.046875 -2.929688 7.882812 -2.296875 7.5625 -1.734375 C 7.25 -1.171875 6.8125 -0.726562 6.25 -0.40625 C 5.6875 -0.09375 5.050781 0.0625 4.34375 0.0625 Z M 4.34375 -0.796875 C 4.863281 -0.796875 5.328125 -0.914062 5.734375 -1.15625 C 6.148438 -1.394531 6.472656 -1.726562 6.703125 -2.15625 C 6.929688 -2.59375 7.046875 -3.085938 7.046875 -3.640625 C 7.046875 -4.191406 6.929688 -4.679688 6.703125 -5.109375 C 6.472656 -5.546875 6.148438 -5.882812 5.734375 -6.125 C 5.328125 -6.363281 4.863281 -6.484375 4.34375 -6.484375 C 3.832031 -6.484375 3.367188 -6.363281 2.953125 -6.125 C 2.546875 -5.882812 2.222656 -5.546875 1.984375 -5.109375 C 1.753906 -4.679688 1.640625 -4.191406 1.640625 -3.640625 C 1.640625 -3.085938 1.753906 -2.59375 1.984375 -2.15625 C 2.222656 -1.726562 2.546875 -1.394531 2.953125 -1.15625 C 3.367188 -0.914062 3.832031 -0.796875 4.34375 -0.796875 Z M 4.34375 -0.796875 "/></g></g></g><g fill="#ffffff" fill-opacity="1"><g transform="translate(152.882716, 90.242259)"><g><path d="M 3.328125 0.0625 C 2.734375 0.0625 2.164062 -0.0195312 1.625 -0.1875 C 1.082031 -0.351562 0.660156 -0.566406 0.359375 -0.828125 L 0.796875 -1.609375 C 1.109375 -1.367188 1.492188 -1.171875 1.953125 -1.015625 C 2.410156 -0.867188 2.890625 -0.796875 3.390625 -0.796875 C 4.054688 -0.796875 4.546875 -0.894531 4.859375 -1.09375 C 5.179688 -1.300781 5.34375 -1.597656 5.34375 -1.984375 C 5.34375 -2.242188 5.253906 -2.453125 5.078125 -2.609375 C 4.898438 -2.765625 4.675781 -2.878906 4.40625 -2.953125 C 4.144531 -3.035156 3.789062 -3.113281 3.34375 -3.1875 C 2.757812 -3.289062 2.285156 -3.398438 1.921875 -3.515625 C 1.566406 -3.640625 1.257812 -3.835938 1 -4.109375 C 0.75 -4.390625 0.625 -4.773438 0.625 -5.265625 C 0.625 -5.867188 0.875 -6.363281 1.375 -6.75 C 1.882812 -7.144531 2.59375 -7.34375 3.5 -7.34375 C 3.96875 -7.34375 4.4375 -7.28125 4.90625 -7.15625 C 5.382812 -7.03125 5.773438 -6.863281 6.078125 -6.65625 L 5.640625 -5.875 C 5.046875 -6.289062 4.332031 -6.5 3.5 -6.5 C 2.875 -6.5 2.398438 -6.382812 2.078125 -6.15625 C 1.765625 -5.9375 1.609375 -5.644531 1.609375 -5.28125 C 1.609375 -5.007812 1.695312 -4.789062 1.875 -4.625 C 2.050781 -4.457031 2.273438 -4.332031 2.546875 -4.25 C 2.816406 -4.175781 3.1875 -4.097656 3.65625 -4.015625 C 4.238281 -3.898438 4.703125 -3.785156 5.046875 -3.671875 C 5.398438 -3.566406 5.703125 -3.378906 5.953125 -3.109375 C 6.203125 -2.847656 6.328125 -2.476562 6.328125 -2 C 6.328125 -1.363281 6.0625 -0.859375 5.53125 -0.484375 C 5 -0.117188 4.265625 0.0625 3.328125 0.0625 Z M 3.328125 0.0625 "/></g></g></g></g></g></svg>